<?xml version="1.0" encoding="UTF-8" standalone="no"?>
<svg
   xmlns:dc="http://purl.org/dc/elements/1.1/"
   xmlns:cc="http://creativecommons.org/ns#"
   xmlns:rdf="http://www.w3.org/1999/02/22-rdf-syntax-ns#"
   xmlns:svg="http://www.w3.org/2000/svg"
   xmlns="http://www.w3.org/2000/svg"
   xmlns:sodipodi="http://sodipodi.sourceforge.net/DTD/sodipodi-0.dtd"
   xmlns:inkscape="http://www.inkscape.org/namespaces/inkscape"
   version="1.1"
   x="0px"
   y="0px"
   viewBox="0 0 100 100"
   id="svg10"
   sodipodi:docname="noun_762162_cc.svg"
   width="100"
   height="100"
   inkscape:version="0.92.2 (5c3e80d, 2017-08-06)">
  <metadata
     id="metadata16">
    <rdf:RDF>
      <cc:Work
         rdf:about="">
        <dc:format>image/svg+xml</dc:format>
        <dc:type
           rdf:resource="http://purl.org/dc/dcmitype/StillImage" />
        <dc:title></dc:title>
      </cc:Work>
    </rdf:RDF>
  </metadata>
  <defs
     id="defs14" />
  <sodipodi:namedview
     pagecolor="#ffffff"
     bordercolor="#666666"
     borderopacity="1"
     objecttolerance="10"
     gridtolerance="10"
     guidetolerance="10"
     inkscape:pageopacity="0"
     inkscape:pageshadow="2"
     inkscape:window-width="2160"
     inkscape:window-height="1361"
     id="namedview12"
     showgrid="false"
     inkscape:pagecheckerboard="false"
     inkscape:zoom="1.888"
     inkscape:cx="50"
     inkscape:cy="62.5"
     inkscape:window-x="-9"
     inkscape:window-y="-9"
     inkscape:window-maximized="1"
     inkscape:current-layer="svg10" />
  <g
     transform="translate(4,-951.36218)"
     id="g4">
    <path
       style="color:#000000;text-indent:0;text-transform:none;direction:ltr;baseline-shift:baseline;display:inline;overflow:visible;visibility:visible;fill:#000000;fill-opacity:1;stroke:none;enable-background:accumulate"
       d="m 47.21875,17.6875 c -17.5649,0 -31.8125,14.24768 -31.8125,31.8125 0,17.5649 14.2476,31.8125 31.8125,31.8125 17.56481,0 31.8125,-14.2476 31.8125,-31.8125 0,-17.56482 -14.24769,-31.8125 -31.8125,-31.8125 z m 0,1 c 17.02441,0 30.8125,13.78808 30.8125,30.8125 0,17.0244 -13.78809,30.8125 -30.8125,30.8125 -17.0244,0 -30.8125,-13.7881 -30.8125,-30.8125 0,-17.02442 13.7881,-30.8125 30.8125,-30.8125 z m 3,17.21875 -1.46875,5.5 H 32.03125 v 1 h 16.4375 L 44.5,57.3125 H 32.03125 v 1 h 12.1875 l -1.40625,5.3125 0.96875,0.25 1.5,-5.5625 H 63.6875 v -1 H 45.53125 l 4,-14.90625 H 63.6875 v -1 H 49.78125 L 51.1875,36.1875 Z"
       transform="translate(0,952.36218)"
       marker="none"
       visibility="visible"
       display="inline"
       overflow="visible"
       id="path2"
       inkscape:connector-curvature="0" />
  </g>
</svg>
